HIERARCHY
ROOT Hips
{
	OFFSET 0.00000 0.00000 0.00000
	CHANNELS 6 Xposition Yposition Zposition Zrotation Yrotation Xrotation 
	JOINT LHipJoint
	{
		OFFSET 0 0 0
		CHANNELS 3 Zrotation Yrotation Xrotation
		JOINT LeftUpLeg
		{
			OFFSET 1.85742 -1.74412 1.01653
			CHANNELS 3 Zrotation Yrotation Xrotation
			JOINT LeftLeg
			{
				OFFSET 2.54803 -7.00067 0.00000
				CHANNELS 3 Zrotation Yrotation Xrotation
				JOINT LeftFoot
				{
					OFFSET 2.51202 -6.90173 0.00000
					CHANNELS 3 Zrotation Yrotation Xrotation
					JOINT LeftToeBase
					{
						OFFSET 0.17547 -0.48209 1.64281
						CHANNELS 3 Zrotation Yrotation Xrotation
						End Site
						{
							OFFSET 0.00000 -0.00000 0.86587
						}
					}
				}
			}
		}
	}
	JOINT RHipJoint
	{
		OFFSET 0 0 0
		CHANNELS 3 Zrotation Yrotation Xrotation
		JOINT RightUpLeg
		{
			OFFSET -1.95533 -1.74413 1.01654
			CHANNELS 3 Zrotation Yrotation Xrotation
			JOINT RightLeg
			{
				OFFSET -2.49465 -6.85400 0.00000
				CHANNELS 3 Zrotation Yrotation Xrotation
				JOINT RightFoot
				{
					OFFSET -2.54783 -7.00010 0.00000
					CHANNELS 3 Zrotation Yrotation Xrotation
					JOINT RightToeBase
					{
						OFFSET -0.18513 -0.50864 1.69288
						CHANNELS 3 Zrotation Yrotation Xrotation
						End Site
						{
							OFFSET -0.00000 -0.00000 0.89242
						}
					}
				}
			}
		}
	}
	JOINT LowerBack
	{
		OFFSET 0 0 0
		CHANNELS 3 Zrotation Yrotation Xrotation
		JOINT Spine
		{
			OFFSET 0.02173 2.16290 -0.15998
			CHANNELS 3 Zrotation Yrotation Xrotation
			JOINT Spine1
			{
				OFFSET 0.00940 2.17323 -0.00467
				CHANNELS 3 Zrotation Yrotation Xrotation
				JOINT Neck
				{
					OFFSET 0 0 0
					CHANNELS 3 Zrotation Yrotation Xrotation
					JOINT Neck1
					{
						OFFSET 0.01475 1.85823 0.31113
						CHANNELS 3 Zrotation Yrotation Xrotation
						JOINT Head
						{
							OFFSET 0.01902 1.88783 -0.37187
							CHANNELS 3 Zrotation Yrotation Xrotation
							End Site
							{
								OFFSET 0.00489 1.93211 -0.16169
							}
						}
					}
				}
				JOINT LeftShoulder
				{
					OFFSET 0 0 0
					CHANNELS 3 Zrotation Yrotation Xrotation
					JOINT LeftArm
					{
						OFFSET 3.34199 1.32384 -0.07862
						CHANNELS 3 Zrotation Yrotation Xrotation
						JOINT LeftForeArm
						{
							OFFSET 5.27950 -0.00000 0.00000
							CHANNELS 3 Zrotation Yrotation Xrotation
							JOINT LeftHand
							{
								OFFSET 3.53504 -0.00000 0.00000
								CHANNELS 3 Zrotation Yrotation Xrotation
								JOINT LeftFingerBase
								{
									OFFSET 0 0 0
									CHANNELS 3 Zrotation Yrotation Xrotation
									JOINT LeftHandIndex1
									{
										OFFSET 0.66795 -0.00000 0.00000
										CHANNELS 3 Zrotation Yrotation Xrotation
										End Site
										{
											OFFSET 0.53852 -0.00000 0.00000
										}
									}
								}
								JOINT LThumb
								{
									OFFSET 0 0 0
									CHANNELS 3 Zrotation Yrotation Xrotation
									End Site
									{
										OFFSET 0.54674 -0.00000 0.54674
									}
								}
							}
						}
					}
				}
				JOINT RightShoulder
				{
					OFFSET 0 0 0
					CHANNELS 3 Zrotation Yrotation Xrotation
					JOINT RightArm
					{
						OFFSET -3.16149 1.45719 -0.50507
						CHANNELS 3 Zrotation Yrotation Xrotation
						JOINT RightForeArm
						{
							OFFSET -5.25035 -0.00000 0.00000
							CHANNELS 3 Zrotation Yrotation Xrotation
							JOINT RightHand
							{
								OFFSET -3.58884 -0.00000 0.00000
								CHANNELS 3 Zrotation Yrotation Xrotation
								JOINT RightFingerBase
								{
									OFFSET 0 0 0
									CHANNELS 3 Zrotation Yrotation Xrotation
									JOINT RightHandIndex1
									{
										OFFSET -0.77924 -0.00000 0.00000
										CHANNELS 3 Zrotation Yrotation Xrotation
										End Site
										{
											OFFSET -0.62824 -0.00000 0.00000
										}
									}
								}
								JOINT RThumb
								{
									OFFSET 0 0 0
									CHANNELS 3 Zrotation Yrotation Xrotation
									End Site
									{
										OFFSET -0.63783 -0.00000 0.63783
									}
								}
							}
						}
					}
				}
			}
		}
	}
}
MOTION
Frames: 14
Frame Time: .0083333
3.9184 17.7333 -7.5172 -1.3785 -32.6876 16.5603 0.0000 0.0000 0.0000 -12.1818 -11.2020 -18.0240 1.4377 7.5809 21.4481 0.5713 8.7613 -20.0563 2.5676 -9.9598 -28.8465 0.0000 0.0000 0.0000 14.4399 12.9601 -21.7263 -0.7395 -5.4935 15.3218 -0.1137 -2.4235 -7.7447 -0.3475 3.7874 -10.4794 4.0149 -0.2486 9.8846 1.3015 0.0186 3.9259 -0.9119 0.0093 -1.4553 0.5502 3.3960 -20.9713 -1.9523 5.3886 42.6602 0.0798 1.6813 20.5339 0.0000 -0.0000 0.0000 -88.6253 -19.4627 93.5776 65.1287 -57.5285 -38.6396 -0.0000 0.0000 -70.7486 52.2236 55.1049 46.6224 -7.1250 0.0000 -0.0000 178.1772 -83.1530 -178.4074 0.0000 -0.0000 0.0000 46.5192 30.6340 64.8057 -61.3040 56.6475 -35.4282 0.0000 0.0000 21.5312 -50.7100 26.5560 -28.6526 7.1250 -0.0000 -0.0000 -11.7873 7.5899 -13.5122
3.9125 17.7343 -7.5169 -1.4421 -32.5937 16.7009 0.0000 0.0000 0.0000 -12.0500 -11.3868 -18.0982 1.4398 7.5862 21.4641 0.5857 8.7533 -20.1966 2.4416 -9.7310 -28.1098 0.0000 0.0000 0.0000 14.5164 12.8816 -21.8313 -0.7369 -5.4842 15.2950 -0.1182 -2.3468 -7.8036 -0.3115 3.5882 -9.9209 4.0553 -0.1995 9.8011 1.2785 0.0808 3.9593 -0.9652 0.0425 -1.3718 0.7299 3.1906 -20.9433 -2.2909 5.1378 42.5124 -0.1807 1.5742 20.4470 0.0000 -0.0000 0.0000 -88.6523 -19.5348 93.7618 65.0304 -57.5078 -38.5566 -0.0000 0.0000 -70.6931 53.2144 55.1630 47.6675 -7.1250 0.0000 -0.0000 176.4780 -82.6340 -176.9583 0.0000 -0.0000 0.0000 46.3995 30.8458 64.6451 -61.1221 56.6016 -35.2763 0.0000 0.0000 21.7700 -51.7044 27.6695 -30.4593 7.1250 -0.0000 -0.0000 -11.9959 9.4808 -14.0947
3.9069 17.7345 -7.5173 -1.5123 -32.4774 16.8431 0.0000 0.0000 0.0000 -11.9104 -11.5277 -18.2259 1.4490 7.6092 21.5332 0.5891 8.7637 -20.2400 2.4469 -9.7408 -28.1414 0.0000 0.0000 0.0000 14.6022 12.7785 -21.9217 -0.7306 -5.4611 15.2286 -0.1191 -2.3003 -7.7912 -0.2852 3.4343 -9.4904 4.0158 -0.2124 9.7207 1.3310 0.0557 3.9915 -0.8861 0.0308 -1.2957 0.6517 3.2681 -20.9158 -2.2946 5.2985 42.4157 -0.1312 1.6249 20.3741 -0.0000 -0.0000 0.0000 -88.7493 -19.6308 93.7817 64.9414 -57.4890 -38.4816 -0.0000 0.0000 -70.7892 53.5238 55.2148 48.0070 -7.1250 0.0000 -0.0000 176.1481 -82.4454 -176.6875 -0.0000 -0.0000 0.0000 46.0236 31.1051 64.8099 -60.8247 56.5257 -35.0281 0.0000 0.0000 21.7513 -52.8715 28.5168 -32.2358 7.1250 -0.0000 -0.0000 -12.3587 11.1602 -14.8306
3.9034 17.7329 -7.5183 -1.5298 -32.3330 16.9208 0.0000 0.0000 0.0000 -11.8208 -11.6961 -18.3361 1.4622 7.6423 21.6327 0.5824 8.8019 -20.2067 2.5283 -9.8892 -28.6188 0.0000 0.0000 0.0000 14.6759 12.5866 -21.9802 -0.7213 -5.4269 15.1304 -0.1165 -2.2924 -7.7184 -0.3317 3.7013 -10.2378 3.9754 -0.2345 9.7148 1.3593 0.0225 4.0100 -0.8307 0.0143 -1.2749 0.5626 3.3405 -20.8778 -2.2478 5.4330 42.4310 -0.0615 1.6680 20.3701 -0.0000 0.0000 0.0000 -88.8495 -19.7501 93.8818 64.7797 -57.4546 -38.3452 -0.0000 0.0000 -70.8933 54.1394 55.2447 48.6589 -7.1250 0.0000 -0.0000 175.2525 -82.1200 -175.9474 -0.0000 0.0000 0.0000 45.6757 31.2415 65.0141 -60.4336 56.4244 -34.7021 0.0000 0.0000 21.7036 -53.8604 28.8376 -33.4439 7.1250 -0.0000 -0.0000 -12.7796 12.1248 -15.5253
3.8999 17.7307 -7.5215 -1.5123 -32.1742 16.9988 0.0000 0.0000 0.0000 -11.7571 -11.7975 -18.5104 1.4761 7.6770 21.7372 0.5914 8.6766 -20.1843 2.5189 -9.8721 -28.5636 0.0000 0.0000 0.0000 14.7327 12.4058 -22.0550 -0.7121 -5.3932 15.0334 -0.1114 -2.3675 -7.6421 -0.4199 4.1593 -11.5252 3.9512 -0.1877 9.7320 1.3310 0.0800 4.0637 -0.8525 0.0441 -1.2262 0.4881 3.3098 -21.0682 -2.1491 5.3849 42.5110 -0.0057 1.6484 20.4705 0.0000 -0.0000 0.0000 -88.8704 -20.0339 94.2795 64.6660 -57.4303 -38.2494 -0.0000 0.0000 -70.9636 54.4619 55.2178 48.9870 -7.1250 0.0000 -0.0000 174.6426 -81.9773 -175.4414 0.0000 -0.0000 0.0000 45.3611 31.2107 64.8880 -60.2119 56.3661 -34.5175 0.0000 0.0000 21.8551 -54.5992 29.0540 -34.3460 7.1250 -0.0000 -0.0000 -13.0983 12.8310 -16.0528
3.8914 17.7306 -7.5275 -1.5850 -32.0480 17.1212 0.0000 0.0000 0.0000 -11.6121 -11.7262 -18.7136 1.4864 7.7026 21.8144 0.5975 8.4866 -20.0766 2.5523 -9.9324 -28.7581 0.0000 0.0000 0.0000 14.8534 12.4042 -22.0716 -0.7039 -5.3625 14.9455 -0.1061 -2.5323 -7.6289 -0.4536 4.3205 -11.9802 3.8239 -0.1525 9.7548 1.3853 0.1154 4.1034 -0.7286 0.0607 -1.1969 0.2851 3.3125 -21.1974 -1.9859 5.4145 42.5589 0.1226 1.6470 20.5228 0.0000 -0.0000 0.0000 -88.8912 -20.2398 94.5440 64.7012 -57.4378 -38.2790 -0.0000 0.0000 -71.1969 54.7271 55.1211 49.2316 -7.1250 0.0000 -0.0000 173.8468 -81.9105 -174.7719 0.0000 -0.0000 0.0000 45.0436 31.1908 64.7975 -60.1270 56.3437 -34.4468 0.0000 0.0000 22.1903 -55.3745 29.4051 -35.4144 7.1250 -0.0000 -0.0000 -13.3899 13.7344 -16.5833
3.8925 17.7323 -7.5308 -1.6598 -31.7715 17.2061 0.0000 0.0000 0.0000 -11.4558 -11.8728 -18.8498 1.4930 7.7188 21.8633 0.5900 8.3970 -19.9198 2.6036 -10.0238 -29.0539 0.0000 0.0000 0.0000 14.9791 12.2397 -22.0830 -0.6943 -5.3266 14.8426 -0.1042 -2.6169 -7.6451 -0.4723 4.4075 -12.2261 3.9476 -0.1912 9.8518 1.3818 0.0788 4.1364 -0.7977 0.0435 -1.2164 0.4303 3.2298 -21.0191 -2.2744 5.3440 42.2718 -0.0665 1.6154 20.2973 0.0000 -0.0000 0.0000 -88.8143 -20.4434 94.8247 64.7794 -57.4545 -38.3450 -0.0000 0.0000 -71.7499 54.9757 54.8555 49.4007 -7.1250 0.0000 -0.0000 172.3559 -81.9654 -173.4956 0.0000 -0.0000 0.0000 44.8474 31.1460 64.6547 -60.0932 56.3347 -34.4186 0.0000 0.0000 22.4833 -56.3261 29.7956 -36.7162 7.1250 -0.0000 -0.0000 -13.7562 14.8107 -17.2443
3.8888 17.7361 -7.5336 -1.7000 -31.5823 17.2827 0.0000 0.0000 0.0000 -11.3247 -12.1049 -18.9160 1.4982 7.7317 21.9022 0.5747 8.4609 -19.8196 2.6989 -10.1909 -29.5971 0.0000 0.0000 0.0000 15.0525 12.1841 -22.0455 -0.6813 -5.2774 14.7015 -0.1011 -2.7406 -7.6648 -0.4692 4.3934 -12.1861 4.0945 -0.1455 9.9086 1.2935 0.1511 4.1936 -0.9790 0.0826 -1.1837 0.4165 3.1118 -20.9516 -2.3546 5.2019 42.0159 -0.1350 1.5584 20.1059 -0.0000 0.0000 0.0000 -88.6662 -20.7834 95.3907 64.7521 -57.4487 -38.3220 -0.0000 0.0000 -72.3610 54.8380 54.4735 49.1220 -7.1250 0.0000 -0.0000 170.8069 -82.2943 -172.1162 -0.0000 0.0000 0.0000 44.7569 31.0251 64.3616 -60.0111 56.3129 -34.3503 0.0000 0.0000 22.5796 -57.2871 30.2675 -38.1223 7.1250 -0.0000 -0.0000 -14.0947 16.0079 -17.8931
3.8818 17.7398 -7.5367 -1.7548 -31.4289 17.4030 0.0000 0.0000 0.0000 -11.1697 -12.3229 -19.0080 1.5050 7.7483 21.9523 0.5690 8.5228 -19.8166 2.7109 -10.2116 -29.6648 0.0000 0.0000 0.0000 15.1345 12.1828 -22.0196 -0.6661 -5.2196 14.5360 -0.0947 -2.9226 -7.6469 -0.4697 4.3958 -12.1929 4.1825 -0.0954 9.8933 1.2005 0.2191 4.2717 -1.1317 0.1203 -1.0897 0.3639 3.0772 -21.0394 -2.1662 5.0922 41.9251 -0.0535 1.5384 20.0542 -0.0000 -0.0000 0.0000 -88.4851 -21.2287 95.9660 64.6301 -57.4225 -38.2191 -0.0000 0.0000 -72.9585 54.5487 54.0485 48.6666 -7.1250 0.0000 -0.0000 169.1080 -82.7298 -170.5641 -0.0000 -0.0000 0.0000 44.7596 31.0285 64.0675 -59.6554 56.2174 -34.0545 0.0000 0.0000 22.7234 -58.1885 30.8551 -39.5840 7.1250 -0.0000 -0.0000 -14.3568 17.3154 -18.4583
3.8759 17.7426 -7.5401 -1.8861 -31.2351 17.5757 0.0000 0.0000 0.0000 -10.9590 -12.3597 -19.1969 1.5128 7.7675 22.0100 0.5774 8.3850 -19.7796 2.6609 -10.1247 -29.3815 0.0000 0.0000 0.0000 15.2976 12.1409 -22.0136 -0.6495 -5.1553 14.3520 -0.0874 -3.0849 -7.5886 -0.4903 4.4898 -12.4589 4.2512 -0.0919 9.8616 1.1895 0.2247 4.3440 -1.1819 0.1262 -0.9961 0.3500 3.0738 -21.1340 -2.0414 5.0414 41.9353 0.0016 1.5341 20.0791 0.0000 -0.0000 0.0000 -88.3965 -21.6833 96.4118 64.3453 -57.3608 -37.9792 -0.0000 0.0000 -73.5428 54.2454 53.7216 48.2301 -7.1250 0.0000 -0.0000 167.7734 -83.1076 -169.3159 0.0000 -0.0000 0.0000 44.7547 31.1722 63.8576 -59.1188 56.0705 -33.6089 0.0000 0.0000 22.9516 -59.1095 31.3582 -41.0177 7.1250 -0.0000 -0.0000 -14.6520 18.5503 -19.0556
3.8734 17.7435 -7.5431 -2.0330 -31.0532 17.7591 0.0000 0.0000 0.0000 -10.7442 -12.4084 -19.4068 1.5230 7.7926 22.0858 0.5774 8.3076 -19.7100 2.7209 -10.2289 -29.7211 0.0000 0.0000 0.0000 15.4723 12.0580 -22.0231 -0.6307 -5.0815 14.1412 -0.0807 -3.1739 -7.4850 -0.5126 4.5891 -12.7401 4.3481 -0.0649 9.8400 1.1849 0.2647 4.4061 -1.2449 0.1492 -0.9166 -1.1776 3.7058 -22.2171 0.3227 5.7191 43.2768 1.6688 1.8132 21.1053 0.0000 -0.0000 0.0000 -88.3352 -22.1514 96.9701 64.0500 -57.2960 -37.7307 -0.0000 0.0000 -73.9605 54.2681 53.5974 48.2086 -7.1250 0.0000 -0.0000 167.0509 -83.1764 -168.6657 0.0000 -0.0000 0.0000 44.7648 31.3063 63.5899 -58.5991 55.9249 -33.1781 0.0000 0.0000 23.0986 -60.0289 31.7275 -42.3621 7.1250 -0.0000 -0.0000 -14.9894 19.6423 -19.6889
3.8732 17.7448 -7.5473 -2.1338 -30.9106 17.9051 0.0000 0.0000 0.0000 -10.5595 -12.6071 -19.5587 1.5359 7.8239 22.1806 0.5808 8.3168 -19.7540 2.7236 -10.2335 -29.7362 0.0000 0.0000 0.0000 15.5932 11.9454 -22.0296 -0.6106 -5.0013 13.9124 -0.0779 -3.1823 -7.4135 -0.4968 4.5187 -12.5408 4.4572 -0.0117 9.8482 1.1064 0.3411 4.4598 -1.3950 0.1909 -0.8594 0.4393 3.0527 -21.3156 -1.9984 4.9642 42.0944 -0.0072 1.5214 20.2381 -0.0000 0.0000 0.0000 -88.1332 -22.5925 97.5854 63.9393 -57.2714 -37.6375 -0.0000 0.0000 -74.2521 54.7418 53.5058 48.6725 -7.1250 0.0000 -0.0000 165.9601 -82.9764 -167.7620 -0.0000 0.0000 0.0000 44.8586 31.3986 63.1587 -58.1872 55.8072 -32.8371 0.0000 0.0000 23.3642 -60.8056 32.2199 -43.6579 7.1250 -0.0000 -0.0000 -15.2052 20.7805 -20.1592
3.8739 17.7472 -7.5540 -2.2170 -30.7831 18.0044 0.0000 0.0000 0.0000 -10.3844 -12.8447 -19.6459 1.5478 7.8529 22.2681 0.5882 8.3111 -19.8248 2.6222 -10.0568 -29.1608 0.0000 0.0000 0.0000 15.7007 11.8088 -22.0119 -0.5918 -4.9250 13.6949 -0.0794 -3.1409 -7.4179 -0.4577 4.3397 -12.0344 4.5209 0.0272 9.9418 1.0496 0.4003 4.5025 -1.4960 0.2219 -0.8615 0.5764 2.9199 -21.2327 -2.2345 4.8001 41.9092 -0.1871 1.4550 20.1048 -0.0000 -0.0000 0.0000 -88.0149 -22.9601 98.0632 63.7624 -57.2319 -37.4887 -0.0000 0.0000 -74.4305 55.0364 53.4104 48.9477 -7.1250 0.0000 -0.0000 165.1019 -82.8740 -167.0405 -0.0000 -0.0000 0.0000 44.8983 31.5162 62.6247 -57.9454 55.7371 -32.6372 0.0000 0.0000 23.8284 -61.5983 32.9038 -45.1318 7.1250 -0.0000 -0.0000 -15.3515 22.1489 -20.5600
3.8751 17.7468 -7.5612 -2.2967 -30.6934 18.0965 0.0000 0.0000 0.0000 -10.2330 -12.9918 -19.7421 1.5577 7.8765 22.3397 0.5877 8.3254 -19.8325 2.5892 -9.9983 -28.9713 0.0000 0.0000 0.0000 15.8338 11.6383 -22.0251 -0.5752 -4.8570 13.5010 -0.0800 -3.0899 -7.3869 -0.4679 4.3874 -12.1692 4.3843 -0.0331 10.0643 1.1644 0.3148 4.5450 -1.2920 0.1760 -0.8916 0.3735 2.9726 -21.2007 -2.3771 5.0373 41.7936 -0.1678 1.4944 20.0258 -0.0000 0.0000 0.0000 -88.1647 -23.2024 98.0308 63.4476 -57.1608 -37.2241 -0.0000 0.0000 -74.3982 54.8686 53.4189 48.7740 -7.1250 0.0000 -0.0000 165.3291 -82.9613 -167.2142 -0.0000 0.0000 0.0000 44.8109 32.0237 62.3306 -57.6930 55.6632 -32.4287 0.0000 0.0000 24.3299 -62.3567 33.6536 -46.6165 7.1250 -0.0000 -0.0000 -15.4456 23.5582 -20.8825
